<?xml version="1.0" encoding="UTF-8" standalone="yes"?><svg xmlns="http://www.w3.org/2000/svg" xmlns:xlink="http://www.w3.org/1999/xlink" height="302px" style="width:266px;height:302px;" version="1.1" viewBox="0 0 266 302" width="266px"><defs><filter height="300%" id="f1" width="300%" x="-1" y="-1"><feGaussianBlur result="blurOut" stdDeviation="2.0"/><feColorMatrix in="blurOut" result="blurOut2" type="matrix" values="0 0 0 0 0 0 0 0 0 0 0 0 0 0 0 0 0 0 .4 0"/><feOffset dx="4.0" dy="4.0" in="blurOut2" result="blurOut3"/><feBlend in="SourceGraphic" in2="blurOut3" mode="normal"/></filter></defs><g><rect fill="#FFFFFF" filter="url(#f1)" height="155.5313" style="stroke: #A80036; stroke-width: 1.0;" width="10" x="207.5" y="89.4297"/><rect fill="#ADD8E6" height="297.3906" style="stroke: #A80036; stroke-width: 1.0;" width="92" x="4" y="4"/><text fill="#000000" font-family="sans-serif" font-size="13" font-weight="bold" lengthAdjust="spacingAndGlyphs" textLength="86" x="7" y="16.0669">MainThread</text><line style="stroke: #A80036; stroke-width: 1.0; stroke-dasharray: 5.0,5.0;" x1="49.5" x2="49.5" y1="58.4297" y2="263.0938"/><line style="stroke: #A80036; stroke-width: 1.0; stroke-dasharray: 5.0,5.0;" x1="212" x2="212" y1="58.4297" y2="263.0938"/><rect fill="#FEFECE" filter="url(#f1)" height="30.2969" style="stroke: #A80036; stroke-width: 1.5;" width="67" x="14.5" y="23.1328"/><text fill="#000000" font-family="sans-serif" font-size="14" lengthAdjust="spacingAndGlyphs" textLength="53" x="21.5" y="43.1279">Asyncio</text><rect fill="#FEFECE" filter="url(#f1)" height="30.2969" style="stroke: #A80036; stroke-width: 1.5;" width="67" x="14.5" y="262.0938"/><text fill="#000000" font-family="sans-serif" font-size="14" lengthAdjust="spacingAndGlyphs" textLength="53" x="21.5" y="282.0889">Asyncio</text><rect fill="#FEFECE" filter="url(#f1)" height="30.2969" style="stroke: #A80036; stroke-width: 1.5;" width="93" x="164" y="23.1328"/><text fill="#000000" font-family="sans-serif" font-size="14" lengthAdjust="spacingAndGlyphs" textLength="79" x="171" y="43.1279">ThreadPool</text><rect fill="#FEFECE" filter="url(#f1)" height="30.2969" style="stroke: #A80036; stroke-width: 1.5;" width="93" x="164" y="262.0938"/><text fill="#000000" font-family="sans-serif" font-size="14" lengthAdjust="spacingAndGlyphs" textLength="79" x="171" y="282.0889">ThreadPool</text><rect fill="#FFFFFF" filter="url(#f1)" height="155.5313" style="stroke: #A80036; stroke-width: 1.0;" width="10" x="207.5" y="89.4297"/><polygon fill="#A80036" points="195.5,85.4297,205.5,89.4297,195.5,93.4297,199.5,89.4297" style="stroke: #A80036; stroke-width: 1.0;"/><line style="stroke: #A80036; stroke-width: 1.0;" x1="50" x2="201.5" y1="89.4297" y2="89.4297"/><text fill="#000000" font-family="sans-serif" font-size="13" lengthAdjust="spacingAndGlyphs" textLength="87" x="57" y="84.4966">blocking code</text><line style="stroke: #A80036; stroke-width: 1.0;" x1="50" x2="92" y1="118.6953" y2="118.6953"/><line style="stroke: #A80036; stroke-width: 1.0;" x1="92" x2="92" y1="118.6953" y2="131.6953"/><line style="stroke: #A80036; stroke-width: 1.0;" x1="51" x2="92" y1="131.6953" y2="131.6953"/><polygon fill="#A80036" points="61,127.6953,51,131.6953,61,135.6953,57,131.6953" style="stroke: #A80036; stroke-width: 1.0;"/><text fill="#000000" font-family="sans-serif" font-size="13" lengthAdjust="spacingAndGlyphs" textLength="130" x="57" y="113.6294">dispatch async code</text><line style="stroke: #A80036; stroke-width: 1.0;" x1="50" x2="92" y1="160.8281" y2="160.8281"/><line style="stroke: #A80036; stroke-width: 1.0;" x1="92" x2="92" y1="160.8281" y2="173.8281"/><line style="stroke: #A80036; stroke-width: 1.0;" x1="51" x2="92" y1="173.8281" y2="173.8281"/><polygon fill="#A80036" points="61,169.8281,51,173.8281,61,177.8281,57,173.8281" style="stroke: #A80036; stroke-width: 1.0;"/><text fill="#000000" font-family="sans-serif" font-size="13" lengthAdjust="spacingAndGlyphs" textLength="130" x="57" y="155.7622">dispatch async code</text><line style="stroke: #A80036; stroke-width: 1.0;" x1="50" x2="92" y1="202.9609" y2="202.9609"/><line style="stroke: #A80036; stroke-width: 1.0;" x1="92" x2="92" y1="202.9609" y2="215.9609"/><line style="stroke: #A80036; stroke-width: 1.0;" x1="51" x2="92" y1="215.9609" y2="215.9609"/><polygon fill="#A80036" points="61,211.9609,51,215.9609,61,219.9609,57,215.9609" style="stroke: #A80036; stroke-width: 1.0;"/><text fill="#000000" font-family="sans-serif" font-size="13" lengthAdjust="spacingAndGlyphs" textLength="130" x="57" y="197.895">dispatch async code</text><polygon fill="#A80036" points="61,240.9609,51,244.9609,61,248.9609,57,244.9609" style="stroke: #A80036; stroke-width: 1.0;"/><line style="stroke: #A80036; stroke-width: 1.0;" x1="55" x2="211.5" y1="244.9609" y2="244.9609"/><text fill="#000000" font-family="sans-serif" font-size="13" lengthAdjust="spacingAndGlyphs" textLength="127" x="67" y="240.0278">blocking code result</text></g></svg>