<?xml version="1.0" encoding="UTF-8" standalone="yes"?><svg xmlns="http://www.w3.org/2000/svg" xmlns:xlink="http://www.w3.org/1999/xlink" height="447px" style="width:276px;height:447px;" version="1.1" viewBox="0 0 276 447" width="276px"><defs><filter height="300%" id="f1" width="300%" x="-1" y="-1"><feGaussianBlur result="blurOut" stdDeviation="2.0"/><feColorMatrix in="blurOut" result="blurOut2" type="matrix" values="0 0 0 0 0 0 0 0 0 0 0 0 0 0 0 0 0 0 .4 0"/><feOffset dx="4.0" dy="4.0" in="blurOut2" result="blurOut3"/><feBlend in="SourceGraphic" in2="blurOut3" mode="normal"/></filter></defs><g><rect fill="#FFFFFF" filter="url(#f1)" height="34.1328" style="stroke: #A80036; stroke-width: 1.0;" width="10" x="62" y="97.4297"/><rect fill="#FFFFFF" filter="url(#f1)" height="28" style="stroke: #A80036; stroke-width: 1.0;" width="10" x="62" y="326.2266"/><rect fill="#FFFFFF" filter="url(#f1)" height="258.7969" style="stroke: #A80036; stroke-width: 1.0;" width="10" x="218" y="131.5625"/><rect fill="#FFFFFF" filter="url(#f1)" height="143.5313" style="stroke: #000000; stroke-width: 2.0;" width="163" x="13" y="146.6953"/><rect fill="#ADD8E6" height="442.7891" style="stroke: #A80036; stroke-width: 1.0;" width="96" x="19" y="4"/><text fill="#000000" font-family="sans-serif" font-size="13" font-weight="bold" lengthAdjust="spacingAndGlyphs" textLength="86" x="24" y="16.0669">MainThread</text><line style="stroke: #A80036; stroke-width: 1.0; stroke-dasharray: 5.0,5.0;" x1="67" x2="67" y1="58.4297" y2="408.4922"/><line style="stroke: #A80036; stroke-width: 1.0; stroke-dasharray: 5.0,5.0;" x1="222.5" x2="222.5" y1="58.4297" y2="408.4922"/><rect fill="#FEFECE" filter="url(#f1)" height="30.2969" style="stroke: #A80036; stroke-width: 1.5;" width="84" x="23" y="23.1328"/><text fill="#000000" font-family="sans-serif" font-size="14" lengthAdjust="spacingAndGlyphs" textLength="70" x="30" y="43.1279">SyncCode</text><rect fill="#FEFECE" filter="url(#f1)" height="30.2969" style="stroke: #A80036; stroke-width: 1.5;" width="84" x="23" y="407.4922"/><text fill="#000000" font-family="sans-serif" font-size="14" lengthAdjust="spacingAndGlyphs" textLength="70" x="30" y="427.4873">SyncCode</text><rect fill="#FEFECE" filter="url(#f1)" height="30.2969" style="stroke: #A80036; stroke-width: 1.5;" width="93" x="174.5" y="23.1328"/><text fill="#000000" font-family="sans-serif" font-size="14" lengthAdjust="spacingAndGlyphs" textLength="79" x="181.5" y="43.1279">ThreadPool</text><rect fill="#FEFECE" filter="url(#f1)" height="30.2969" style="stroke: #A80036; stroke-width: 1.5;" width="93" x="174.5" y="407.4922"/><text fill="#000000" font-family="sans-serif" font-size="14" lengthAdjust="spacingAndGlyphs" textLength="79" x="181.5" y="427.4873">ThreadPool</text><rect fill="#FFFFFF" filter="url(#f1)" height="34.1328" style="stroke: #A80036; stroke-width: 1.0;" width="10" x="62" y="97.4297"/><rect fill="#FFFFFF" filter="url(#f1)" height="28" style="stroke: #A80036; stroke-width: 1.0;" width="10" x="62" y="326.2266"/><rect fill="#FFFFFF" filter="url(#f1)" height="258.7969" style="stroke: #A80036; stroke-width: 1.0;" width="10" x="218" y="131.5625"/><line style="stroke: #A80036; stroke-width: 1.0;" x1="67" x2="114" y1="84.5625" y2="84.5625"/><line style="stroke: #A80036; stroke-width: 1.0;" x1="114" x2="114" y1="84.5625" y2="97.5625"/><line style="stroke: #A80036; stroke-width: 1.0;" x1="73" x2="114" y1="97.5625" y2="97.5625"/><polygon fill="#A80036" points="83,93.5625,73,97.5625,83,101.5625,79,97.5625" style="stroke: #A80036; stroke-width: 1.0;"/><text fill="#000000" font-family="sans-serif" font-size="13" lengthAdjust="spacingAndGlyphs" textLength="82" x="79" y="79.4966">do sync work</text><polygon fill="#A80036" points="206,127.5625,216,131.5625,206,135.5625,210,131.5625" style="stroke: #A80036; stroke-width: 1.0;"/><line style="stroke: #A80036; stroke-width: 1.0;" x1="67" x2="212" y1="131.5625" y2="131.5625"/><text fill="#000000" font-family="sans-serif" font-size="13" lengthAdjust="spacingAndGlyphs" textLength="87" x="74" y="126.6294">blocking code</text><rect fill="none" height="143.5313" style="stroke: #000000; stroke-width: 2.0;" width="163" x="13" y="146.6953"/><polygon fill="#EEEEEE" points="13,146.6953,149,146.6953,149,153.6953,139,163.6953,13,163.6953,13,146.6953" style="stroke: #000000; stroke-width: 2.0;"/><text fill="#000000" font-family="sans-serif" font-size="13" font-weight="bold" lengthAdjust="spacingAndGlyphs" textLength="91" x="28" y="159.7622">spin asyncio</text><line style="stroke: #A80036; stroke-width: 1.0;" x1="67" x2="109" y1="184.9609" y2="184.9609"/><line style="stroke: #A80036; stroke-width: 1.0;" x1="109" x2="109" y1="184.9609" y2="197.9609"/><line style="stroke: #A80036; stroke-width: 1.0;" x1="68" x2="109" y1="197.9609" y2="197.9609"/><polygon fill="#A80036" points="78,193.9609,68,197.9609,78,201.9609,74,197.9609" style="stroke: #A80036; stroke-width: 1.0;"/><text fill="#000000" font-family="sans-serif" font-size="13" lengthAdjust="spacingAndGlyphs" textLength="90" x="74" y="179.895">do async work</text><line style="stroke: #A80036; stroke-width: 1.0;" x1="67" x2="109" y1="227.0938" y2="227.0938"/><line style="stroke: #A80036; stroke-width: 1.0;" x1="109" x2="109" y1="227.0938" y2="240.0938"/><line style="stroke: #A80036; stroke-width: 1.0;" x1="68" x2="109" y1="240.0938" y2="240.0938"/><polygon fill="#A80036" points="78,236.0938,68,240.0938,78,244.0938,74,240.0938" style="stroke: #A80036; stroke-width: 1.0;"/><text fill="#000000" font-family="sans-serif" font-size="13" lengthAdjust="spacingAndGlyphs" textLength="90" x="74" y="222.0278">do async work</text><line style="stroke: #A80036; stroke-width: 1.0;" x1="67" x2="109" y1="269.2266" y2="269.2266"/><line style="stroke: #A80036; stroke-width: 1.0;" x1="109" x2="109" y1="269.2266" y2="282.2266"/><line style="stroke: #A80036; stroke-width: 1.0;" x1="68" x2="109" y1="282.2266" y2="282.2266"/><polygon fill="#A80036" points="78,278.2266,68,282.2266,78,286.2266,74,282.2266" style="stroke: #A80036; stroke-width: 1.0;"/><text fill="#000000" font-family="sans-serif" font-size="13" lengthAdjust="spacingAndGlyphs" textLength="90" x="74" y="264.1606">do async work</text><line style="stroke: #A80036; stroke-width: 1.0;" x1="72" x2="114" y1="318.3594" y2="318.3594"/><line style="stroke: #A80036; stroke-width: 1.0;" x1="114" x2="114" y1="318.3594" y2="331.3594"/><line style="stroke: #A80036; stroke-width: 1.0;" x1="73" x2="114" y1="331.3594" y2="331.3594"/><polygon fill="#A80036" points="83,327.3594,73,331.3594,83,335.3594,79,331.3594" style="stroke: #A80036; stroke-width: 1.0;"/><text fill="#000000" font-family="sans-serif" font-size="13" lengthAdjust="spacingAndGlyphs" textLength="82" x="79" y="313.2935">do sync work</text><polygon fill="#A80036" points="78,386.3594,68,390.3594,78,394.3594,74,390.3594" style="stroke: #A80036; stroke-width: 1.0;"/><line style="stroke: #A80036; stroke-width: 1.0;" x1="72" x2="222" y1="390.3594" y2="390.3594"/><text fill="#000000" font-family="sans-serif" font-size="13" lengthAdjust="spacingAndGlyphs" textLength="127" x="84" y="385.4263">blocking code result</text></g></svg>