<?xml version="1.0" encoding="UTF-8" standalone="yes"?><svg xmlns="http://www.w3.org/2000/svg" xmlns:xlink="http://www.w3.org/1999/xlink" height="344px" style="width:295px;height:344px;" version="1.1" viewBox="0 0 295 344" width="295px"><defs><filter height="300%" id="f1" width="300%" x="-1" y="-1"><feGaussianBlur result="blurOut" stdDeviation="2.0"/><feColorMatrix in="blurOut" result="blurOut2" type="matrix" values="0 0 0 0 0 0 0 0 0 0 0 0 0 0 0 0 0 0 .4 0"/><feOffset dx="4.0" dy="4.0" in="blurOut2" result="blurOut3"/><feBlend in="SourceGraphic" in2="blurOut3" mode="normal"/></filter></defs><g><rect fill="#FFFFFF" filter="url(#f1)" height="189.6641" style="stroke: #A80036; stroke-width: 1.0;" width="10" x="47" y="97.4297"/><rect fill="#ADD8E6" height="339.5234" style="stroke: #A80036; stroke-width: 1.0;" width="96" x="4" y="4"/><text fill="#000000" font-family="sans-serif" font-size="13" font-weight="bold" lengthAdjust="spacingAndGlyphs" textLength="86" x="9" y="16.0669">MainThread</text><line style="stroke: #A80036; stroke-width: 1.0; stroke-dasharray: 5.0,5.0;" x1="52" x2="52" y1="58.4297" y2="305.2266"/><line style="stroke: #A80036; stroke-width: 1.0; stroke-dasharray: 5.0,5.0;" x1="196.5" x2="196.5" y1="58.4297" y2="305.2266"/><rect fill="#FEFECE" filter="url(#f1)" height="30.2969" style="stroke: #A80036; stroke-width: 1.5;" width="84" x="8" y="23.1328"/><text fill="#000000" font-family="sans-serif" font-size="14" lengthAdjust="spacingAndGlyphs" textLength="70" x="15" y="43.1279">SyncCode</text><rect fill="#FEFECE" filter="url(#f1)" height="30.2969" style="stroke: #A80036; stroke-width: 1.5;" width="84" x="8" y="304.2266"/><text fill="#000000" font-family="sans-serif" font-size="14" lengthAdjust="spacingAndGlyphs" textLength="70" x="15" y="324.2217">SyncCode</text><rect fill="#FEFECE" filter="url(#f1)" height="30.2969" style="stroke: #A80036; stroke-width: 1.5;" width="67" x="161.5" y="23.1328"/><text fill="#000000" font-family="sans-serif" font-size="14" lengthAdjust="spacingAndGlyphs" textLength="53" x="168.5" y="43.1279">Asyncio</text><rect fill="#FEFECE" filter="url(#f1)" height="30.2969" style="stroke: #A80036; stroke-width: 1.5;" width="67" x="161.5" y="304.2266"/><text fill="#000000" font-family="sans-serif" font-size="14" lengthAdjust="spacingAndGlyphs" textLength="53" x="168.5" y="324.2217">Asyncio</text><rect fill="#FFFFFF" filter="url(#f1)" height="189.6641" style="stroke: #A80036; stroke-width: 1.0;" width="10" x="47" y="97.4297"/><line style="stroke: #A80036; stroke-width: 1.0;" x1="52" x2="99" y1="84.5625" y2="84.5625"/><line style="stroke: #A80036; stroke-width: 1.0;" x1="99" x2="99" y1="84.5625" y2="97.5625"/><line style="stroke: #A80036; stroke-width: 1.0;" x1="58" x2="99" y1="97.5625" y2="97.5625"/><polygon fill="#A80036" points="68,93.5625,58,97.5625,68,101.5625,64,97.5625" style="stroke: #A80036; stroke-width: 1.0;"/><text fill="#000000" font-family="sans-serif" font-size="13" lengthAdjust="spacingAndGlyphs" textLength="82" x="64" y="79.4966">do sync work</text><polygon fill="#A80036" points="185,127.5625,195,131.5625,185,135.5625,189,131.5625" style="stroke: #A80036; stroke-width: 1.0;"/><line style="stroke: #A80036; stroke-width: 1.0;" x1="57" x2="191" y1="131.5625" y2="131.5625"/><text fill="#000000" font-family="sans-serif" font-size="13" lengthAdjust="spacingAndGlyphs" textLength="116" x="64" y="126.6294">submit async task</text><line style="stroke: #A80036; stroke-width: 1.0;" x1="197" x2="239" y1="160.8281" y2="160.8281"/><line style="stroke: #A80036; stroke-width: 1.0;" x1="239" x2="239" y1="160.8281" y2="173.8281"/><line style="stroke: #A80036; stroke-width: 1.0;" x1="198" x2="239" y1="173.8281" y2="173.8281"/><polygon fill="#A80036" points="208,169.8281,198,173.8281,208,177.8281,204,173.8281" style="stroke: #A80036; stroke-width: 1.0;"/><text fill="#000000" font-family="sans-serif" font-size="13" lengthAdjust="spacingAndGlyphs" textLength="90" x="204" y="155.7622">do async work</text><line style="stroke: #A80036; stroke-width: 1.0;" x1="197" x2="239" y1="202.9609" y2="202.9609"/><line style="stroke: #A80036; stroke-width: 1.0;" x1="239" x2="239" y1="202.9609" y2="215.9609"/><line style="stroke: #A80036; stroke-width: 1.0;" x1="198" x2="239" y1="215.9609" y2="215.9609"/><polygon fill="#A80036" points="208,211.9609,198,215.9609,208,219.9609,204,215.9609" style="stroke: #A80036; stroke-width: 1.0;"/><text fill="#000000" font-family="sans-serif" font-size="13" lengthAdjust="spacingAndGlyphs" textLength="90" x="204" y="197.895">do async work</text><line style="stroke: #A80036; stroke-width: 1.0;" x1="197" x2="239" y1="245.0938" y2="245.0938"/><line style="stroke: #A80036; stroke-width: 1.0;" x1="239" x2="239" y1="245.0938" y2="258.0938"/><line style="stroke: #A80036; stroke-width: 1.0;" x1="198" x2="239" y1="258.0938" y2="258.0938"/><polygon fill="#A80036" points="208,254.0938,198,258.0938,208,262.0938,204,258.0938" style="stroke: #A80036; stroke-width: 1.0;"/><text fill="#000000" font-family="sans-serif" font-size="13" lengthAdjust="spacingAndGlyphs" textLength="90" x="204" y="240.0278">do async work</text><polygon fill="#A80036" points="63,283.0938,53,287.0938,63,291.0938,59,287.0938" style="stroke: #A80036; stroke-width: 1.0;"/><line style="stroke: #A80036; stroke-width: 1.0;" x1="57" x2="196" y1="287.0938" y2="287.0938"/><text fill="#000000" font-family="sans-serif" font-size="13" lengthAdjust="spacingAndGlyphs" textLength="108" x="69" y="282.1606">async task result</text></g></svg>